<mxfile host="Electron" agent="Mozilla/5.0 (X11; Linux x86_64) AppleWebKit/537.36 (KHTML, like Gecko) draw.io/24.7.17 Chrome/128.0.6613.36 Electron/32.0.1 Safari/537.36" version="24.7.17">
  <diagram name="Page-1" id="rE5m4VAgiYEBy6v4etOH">
    <mxGraphModel dx="1434" dy="843" grid="1" gridSize="10" guides="1" tooltips="1" connect="1" arrows="1" fold="1" page="1" pageScale="1" pageWidth="1169" pageHeight="827" math="1" shadow="0">
      <root>
        <mxCell id="0" />
        <mxCell id="1" parent="0" />
        <mxCell id="bEbIlbEOSaB0dLJhlC57-1" value="&lt;font style=&quot;font-size: 48px;&quot;&gt;$$\ket{\psi} = \alpha\ket{0} + \beta\ket{1}$$&lt;/font&gt;" style="text;html=1;align=center;verticalAlign=middle;whiteSpace=wrap;rounded=0;" vertex="1" parent="1">
          <mxGeometry x="420" y="560" width="380" height="80" as="geometry" />
        </mxCell>
        <mxCell id="bEbIlbEOSaB0dLJhlC57-4" value="&lt;font style=&quot;font-size: 48px;&quot;&gt;$$, |\alpha|^2 + |\beta|^2 = 1$$&lt;/font&gt;" style="text;html=1;align=center;verticalAlign=middle;whiteSpace=wrap;rounded=0;" vertex="1" parent="1">
          <mxGeometry x="420.01" y="650" width="380" height="80" as="geometry" />
        </mxCell>
        <mxCell id="bEbIlbEOSaB0dLJhlC57-8" value="" style="ellipse;whiteSpace=wrap;html=1;aspect=fixed;fillColor=#dae8fc;dashed=1;strokeWidth=1;strokeColor=#6c8ebf;gradientColor=#7ea6e0;" vertex="1" parent="1">
          <mxGeometry x="420" y="120.00000000000001" width="380" height="380" as="geometry" />
        </mxCell>
        <mxCell id="bEbIlbEOSaB0dLJhlC57-9" value="" style="ellipse;whiteSpace=wrap;html=1;rotation=-90;fillColor=none;dashed=1" vertex="1" parent="1">
          <mxGeometry x="415.98" y="210.39000000000001" width="380.08" height="198" as="geometry" />
        </mxCell>
        <mxCell id="bEbIlbEOSaB0dLJhlC57-10" value="" style="ellipse;whiteSpace=wrap;html=1;rotation=90;direction=south;fillColor=none;dashed=1" vertex="1" parent="1">
          <mxGeometry x="535" y="123.68000000000008" width="150" height="376.32" as="geometry" />
        </mxCell>
        <mxCell id="bEbIlbEOSaB0dLJhlC57-11" value="" style="endArrow=classic;html=1;rounded=0;entryX=0.5;entryY=0;entryDx=0;entryDy=0;fillColor=none;dashed=1" edge="1" parent="1" source="bEbIlbEOSaB0dLJhlC57-25" target="bEbIlbEOSaB0dLJhlC57-8">
          <mxGeometry width="50" height="50" relative="1" as="geometry">
            <mxPoint x="610" y="310" as="sourcePoint" />
            <mxPoint x="640" y="310" as="targetPoint" />
          </mxGeometry>
        </mxCell>
        <mxCell id="bEbIlbEOSaB0dLJhlC57-12" value="" style="endArrow=classic;html=1;rounded=0;entryX=0.5;entryY=1;entryDx=0;entryDy=0;fillColor=none;dashed=1" edge="1" parent="1" target="bEbIlbEOSaB0dLJhlC57-8">
          <mxGeometry width="50" height="50" relative="1" as="geometry">
            <mxPoint x="609.5" y="310" as="sourcePoint" />
            <mxPoint x="609.5" y="120.00000000000001" as="targetPoint" />
          </mxGeometry>
        </mxCell>
        <mxCell id="bEbIlbEOSaB0dLJhlC57-13" value="" style="endArrow=classic;startArrow=classic;html=1;rounded=0;entryX=1;entryY=0.5;entryDx=0;entryDy=0;exitX=0;exitY=0.5;exitDx=0;exitDy=0;fillColor=none;dashed=1" edge="1" parent="1" source="bEbIlbEOSaB0dLJhlC57-8" target="bEbIlbEOSaB0dLJhlC57-8">
          <mxGeometry width="50" height="50" relative="1" as="geometry">
            <mxPoint x="590" y="360" as="sourcePoint" />
            <mxPoint x="640" y="310" as="targetPoint" />
          </mxGeometry>
        </mxCell>
        <mxCell id="bEbIlbEOSaB0dLJhlC57-14" value="&lt;span style=&quot;font-size: 18px;&quot;&gt;$$\ket{0}$$&lt;/span&gt;" style="text;html=1;align=center;verticalAlign=middle;whiteSpace=wrap;rounded=0;" vertex="1" parent="1">
          <mxGeometry x="580" y="80.00000000000001" width="60" height="30" as="geometry" />
        </mxCell>
        <mxCell id="bEbIlbEOSaB0dLJhlC57-15" value="&lt;span style=&quot;font-size: 18px;&quot;&gt;$$\ket{1}$$&lt;/span&gt;" style="text;html=1;align=center;verticalAlign=middle;whiteSpace=wrap;rounded=0;" vertex="1" parent="1">
          <mxGeometry x="580" y="510" width="60" height="30" as="geometry" />
        </mxCell>
        <mxCell id="bEbIlbEOSaB0dLJhlC57-16" value="&lt;span style=&quot;font-size: 18px;&quot;&gt;$$\ket{+}$$&lt;/span&gt;" style="text;html=1;align=center;verticalAlign=middle;whiteSpace=wrap;rounded=0;" vertex="1" parent="1">
          <mxGeometry x="460" y="378.39" width="60" height="30" as="geometry" />
        </mxCell>
        <mxCell id="bEbIlbEOSaB0dLJhlC57-17" value="&lt;span style=&quot;font-size: 18px;&quot;&gt;$$\ket{-}$$&lt;/span&gt;" style="text;html=1;align=center;verticalAlign=middle;whiteSpace=wrap;rounded=0;" vertex="1" parent="1">
          <mxGeometry x="690" y="220.00000000000003" width="60" height="30" as="geometry" />
        </mxCell>
        <mxCell id="bEbIlbEOSaB0dLJhlC57-18" value="&lt;span style=&quot;font-size: 18px;&quot;&gt;$$\ket{+i}$$&lt;/span&gt;" style="text;html=1;align=center;verticalAlign=middle;whiteSpace=wrap;rounded=0;" vertex="1" parent="1">
          <mxGeometry x="810" y="294.39" width="60" height="30" as="geometry" />
        </mxCell>
        <mxCell id="bEbIlbEOSaB0dLJhlC57-19" value="&lt;span style=&quot;font-size: 18px;&quot;&gt;$$\ket{-i}$$&lt;/span&gt;" style="text;html=1;align=center;verticalAlign=middle;whiteSpace=wrap;rounded=0;" vertex="1" parent="1">
          <mxGeometry x="380" y="295" width="30" height="30" as="geometry" />
        </mxCell>
        <mxCell id="bEbIlbEOSaB0dLJhlC57-20" value="&lt;font style=&quot;font-size: 18px;&quot;&gt;$$\ket{\psi_1}$$&lt;/font&gt;" style="text;html=1;align=center;verticalAlign=middle;whiteSpace=wrap;rounded=0;" vertex="1" parent="1">
          <mxGeometry x="540" y="353.61" width="50" height="30" as="geometry" />
        </mxCell>
        <mxCell id="bEbIlbEOSaB0dLJhlC57-21" value="" style="endArrow=classic;startArrow=none;html=1;rounded=0;entryX=0.263;entryY=0.932;entryDx=0;entryDy=0;entryPerimeter=0;fillColor=none;dashed=1" edge="1" parent="1">
          <mxGeometry width="50" height="50" relative="1" as="geometry">
            <mxPoint x="610" y="310" as="sourcePoint" />
            <mxPoint x="699" y="247.00000000000003" as="targetPoint" />
          </mxGeometry>
        </mxCell>
        <mxCell id="bEbIlbEOSaB0dLJhlC57-22" value="" style="endArrow=classic;html=1;rounded=0;strokeWidth=2;strokeColor=#0000CC;fillColor=#CC0000;" edge="1" parent="1">
          <mxGeometry width="50" height="50" relative="1" as="geometry">
            <mxPoint x="612" y="310" as="sourcePoint" />
            <mxPoint x="610" y="130.00000000000003" as="targetPoint" />
          </mxGeometry>
        </mxCell>
        <mxCell id="bEbIlbEOSaB0dLJhlC57-23" value="&lt;font style=&quot;font-size: 18px;&quot;&gt;$$\ket{\psi_2}$$&lt;/font&gt;" style="text;html=1;align=center;verticalAlign=middle;whiteSpace=wrap;rounded=0;" vertex="1" parent="1">
          <mxGeometry x="610" y="140.00000000000003" width="50" height="30" as="geometry" />
        </mxCell>
        <mxCell id="bEbIlbEOSaB0dLJhlC57-24" value="" style="endArrow=classic;html=1;rounded=0;entryX=0.5;entryY=0;entryDx=0;entryDy=0;fillColor=none;dashed=1" edge="1" parent="1" target="bEbIlbEOSaB0dLJhlC57-25">
          <mxGeometry width="50" height="50" relative="1" as="geometry">
            <mxPoint x="610" y="310" as="sourcePoint" />
            <mxPoint x="610" y="120.00000000000001" as="targetPoint" />
          </mxGeometry>
        </mxCell>
        <mxCell id="bEbIlbEOSaB0dLJhlC57-25" value="" style="ellipse;whiteSpace=wrap;html=1;aspect=fixed;fillColor=#0000CC;" vertex="1" parent="1">
          <mxGeometry x="600.2" y="110.00000000000001" width="19.61" height="19.61" as="geometry" />
        </mxCell>
        <mxCell id="bEbIlbEOSaB0dLJhlC57-42" value="" style="endArrow=classic;startArrow=none;html=1;rounded=0;entryX=0.184;entryY=0.711;entryDx=0;entryDy=0;entryPerimeter=0;fillColor=none;dashed=1" edge="1" parent="1">
          <mxGeometry width="50" height="50" relative="1" as="geometry">
            <mxPoint x="610" y="310" as="sourcePoint" />
            <mxPoint x="503.60824" y="377.94271000000003" as="targetPoint" />
          </mxGeometry>
        </mxCell>
      </root>
    </mxGraphModel>
  </diagram>
</mxfile>
